<svg width="146" height="146" viewBox="0 0 146 146" fill="none" xmlns="http://www.w3.org/2000/svg">
<g clip-path="url(#clip0_5_3)">
<path d="M126.82 32.694C124.016 32.694 121.74 34.967 121.74 37.769V40.49C120.278 40.49 119.094 41.675 119.094 43.137V45.132C119.094 46.717 120.38 48.005 121.968 48.005H142.545C144.007 48.005 145.191 46.82 145.191 45.358V42.317C145.191 41.308 144.375 40.492 143.368 40.492V37.77C143.368 34.968 141.092 32.695 138.289 32.695H136.304V28.866C136.304 25.05 133.209 21.954 129.391 21.954H128.802H108.352C108.352 19.284 106.188 17.119 103.519 17.119H56.843C54.173 17.119 52.008 19.284 52.008 21.954H34.356V18.57H24.793V21.954V23.132H17.732V24.548C15.062 24.818 7.562 25.972 3.85 30.52C2.077 32.69 1.41 35.311 1.867 38.313C2.33 41.356 3.138 44.659 3.995 48.154C6.349 57.77 9.019 68.669 4.544 76.231C2.647 79.44 -3.125 90.589 2.201 99.547C6.324 106.482 15.902 109.987 30.701 109.987C31.887 109.987 33.106 109.964 34.359 109.919V118.947H34.063C31.547 118.947 29.505 120.986 29.505 123.505V128.071H129.545V123.507C129.545 120.988 127.506 118.949 124.987 118.949H124.69V84.631H124.987C127.506 84.631 129.545 82.594 129.545 80.075V80.066C129.545 77.55 127.506 75.51 124.989 75.51L88.203 75.501V61.973C88.203 59.78 86.426 58.002 84.231 58.002V53.291H84.687C86.316 53.291 87.639 51.971 87.639 50.342H101.866V34.459H103.524C106.196 34.459 108.358 32.294 108.358 29.625H128.808V32.694H126.82ZM34.06 75.511C31.542 75.511 29.502 77.551 29.502 80.067V80.076C29.502 82.595 31.544 84.632 34.06 84.632H34.356V108.752L34.314 107.584C18.32 108.158 8.192 105.061 4.208 98.355C-0.464 90.5 4.822 80.347 6.55 77.423C11.514 69.041 8.723 57.649 6.26 47.598C5.417 44.156 4.621 40.902 4.172 37.96C3.818 35.61 4.301 33.66 5.656 32.002C8.685 28.288 15.165 27.197 17.732 26.902V28.135H24.793V29.625V32.309C22.39 33.423 20.64 35.306 20.117 37.546H18.15C17.566 37.546 17.094 38.02 17.094 38.602V39.432C17.094 40.016 17.569 40.488 18.15 40.488H20.134C20.695 42.668 22.438 44.487 24.792 45.58V45.609C24.792 45.609 22.51 66.432 41.271 67.708V68.81C41.271 69.987 42.226 70.943 43.404 70.943H46.701C47.879 70.943 48.834 69.987 48.834 68.81V50.135C48.834 48.958 47.879 48.003 46.701 48.003H43.404C42.226 48.003 41.271 48.958 41.271 50.135C39.696 49.9 35.739 48.965 34.636 45.588C36.996 44.496 38.745 42.675 39.305 40.491H40.613C41.335 40.491 41.922 39.907 41.922 39.183V38.605C41.922 38.021 41.447 37.549 40.866 37.549H39.327C38.785 35.217 36.911 33.278 34.359 32.186V29.627H52.01C52.01 32.297 54.176 34.462 56.846 34.462H59.238V50.342H72.877C72.877 51.971 74.198 53.291 75.828 53.291H76.727V58.002C74.533 58.002 72.755 59.78 72.755 61.973V75.502L34.06 75.511ZM95.188 101.78C95.188 110.435 88.176 117.445 79.524 117.445C70.871 117.445 63.857 110.435 63.857 101.78C63.857 93.133 70.871 86.116 79.524 86.116C88.177 86.116 95.188 93.132 95.188 101.78ZM97.189 45.669H87.633C87.633 44.773 86.907 44.049 86.014 44.049H74.494C73.598 44.049 72.873 44.776 72.873 45.669H63.906V34.459H97.189V45.669V45.669Z" fill="black"/>
<path d="M70.865 101.78C70.865 106.554 74.751 110.437 79.525 110.437C84.299 110.437 88.182 106.554 88.182 101.78C88.182 97.007 84.299 93.124 79.525 93.124C74.751 93.124 70.865 97.006 70.865 101.78Z" fill="black"/>
</g>
<defs>
<clipPath id="clip0_5_3">
<rect width="145.192" height="145.192" fill="white"/>
</clipPath>
</defs>
</svg>
